<svg xmlns="http://www.w3.org/2000/svg" viewBox="0 0 96 96" width="96" height="96" role="img" aria-label="Kidora">
  <defs>
    <linearGradient id="kg" x1="0" y1="0" x2="1" y2="1">
      <stop offset="0" stop-color="#818cf8"/>
      <stop offset="0.55" stop-color="#6366f1"/>
      <stop offset="1" stop-color="#4338ca"/>
    </linearGradient>
    <linearGradient id="ks" x1="0" y1="0" x2="0" y2="1">
      <stop offset="0" stop-color="#ffffff" stop-opacity="0.35"/>
      <stop offset="1" stop-color="#ffffff" stop-opacity="0"/>
    </linearGradient>
  </defs>
  <!-- shield -->
  <path d="M48 5 L83 17 V45 C83 67 67 84 48 91 C29 84 13 67 13 45 V17 Z" fill="url(#kg)"/>
  <!-- top shine -->
  <path d="M48 5 L83 17 V45 C83 52 81 58 78 64 C70 40 26 40 18 64 C15 58 13 52 13 45 V17 Z" fill="url(#ks)"/>
  <!-- caring heart -->
  <path d="M48 70 C36 61 26 54 26 43 C26 36 31 31 38 31 C43 31 46 34 48 38 C50 34 53 31 58 31 C65 31 70 36 70 43 C70 54 60 61 48 70 Z" fill="#ffffff"/>
</svg>
